<svg xmlns="http://www.w3.org/2000/svg" viewBox="0 0 829.05 329.94"><defs><style>.cls-1{fill:#fff;}</style></defs><title>logo</title><g id="Camada_2" data-name="Camada 2"><g id="Camada_2-2" data-name="Camada 2"><path class="cls-1" d="M141.06,138.88v17L74.5,308.53a152.47,152.47,0,0,1,30.88-276L101.06,7.88l2-6h17l-2,6,3.57,20.33,9.29,52.89Z"/><path class="cls-1" d="M180.06,106.88l-11,37h-9s-1.35-7.57-2.93-16.25c-1.46-8-3.11-16.95-4.07-21.75a23.59,23.59,0,0,1-.63-6.81c.31-2.63,1.63-2.19,1.63-2.19l21,3,.73.13A5.15,5.15,0,0,1,180.06,106.88Z"/><path class="cls-1" d="M220.06,23.88l-17.42,9.68-.58.32s-7,28-10,37a20.22,20.22,0,0,1-10,12s-6.75-.8-14-1.89h0c-.54-.07-1.08-.16-1.62-.24-3.73-.58-7.47-1.22-10.37-1.87-9-2-9-9-9-9L139.4,25.64q6.45-.54,13-.55a152.23,152.23,0,0,1,39.26,5.11l11.37-6.32Z"/><path class="cls-1" d="M199.44,322.55a150,150,0,0,1-16,4.23A153.22,153.22,0,0,1,100.79,321l50.49-133.45,4.78-12.63,8.75,2.62h0l3.37,9.57v0Z"/><path class="cls-1" d="M304.86,177.51a152.35,152.35,0,0,1-73.14,130.21L187.06,162.88l1-24,27.82-100A152.42,152.42,0,0,1,304.86,177.51Z"/><path class="cls-1" d="M344.68,162.58a2.14,2.14,0,0,1,2.26-1.81h64.85a28.26,28.26,0,0,1,11.44,2.17,19.57,19.57,0,0,1,8,6.21,21.71,21.71,0,0,1,3.93,9.82,33,33,0,0,1-.91,13,68.82,68.82,0,0,1-5.49,15.4,40.48,40.48,0,0,1-5.86,8.65,20.42,20.42,0,0,1-4.69,4c-1.25.66-1.91,1.17-2,1.53q-.22.92,1.84,3.79t4.54,6.66a14.29,14.29,0,0,1,1.31,3.79,33.66,33.66,0,0,1,.6,4.41,22.59,22.59,0,0,1-.14,4.5,35.94,35.94,0,0,1-.7,3.88A90.91,90.91,0,0,1,418,264.72a47.21,47.21,0,0,1-9,13.15,40.29,40.29,0,0,1-12.94,8.83,44.39,44.39,0,0,1-17.74,3.24H314.53q-1.8,0-1.35-1.8Zm.5,102.14q-.45,1.8,1.35,1.8h38A9.48,9.48,0,0,0,390,264.9a18.52,18.52,0,0,0,4.26-4,22.91,22.91,0,0,0,3-5.14,34.06,34.06,0,0,0,1.63-4.68,20.76,20.76,0,0,0,.75-6.94,9.45,9.45,0,0,0-1.42-4.41,5.86,5.86,0,0,0-2.86-2.25,9.75,9.75,0,0,0-3.35-.63H354a2.14,2.14,0,0,0-2.26,1.8Zm13.56-54.05c-.3,1.21.15,1.81,1.35,1.81h31.16q7.22,0,11.06-3.16t5.94-11.44q1.94-7.74-1.28-10.71a12.18,12.18,0,0,0-8.62-3H367.18a2.14,2.14,0,0,0-2.25,1.8Z"/><path class="cls-1" d="M498.05,196.08c1.2,0,1.65.61,1.35,1.8l-4.61,18.38a2.13,2.13,0,0,1-2.25,1.8h-17.3a5.92,5.92,0,0,0-3.11.9,18,18,0,0,0-2.77,2.07,12.73,12.73,0,0,0-2.16,2.53,8.19,8.19,0,0,0-1.15,2.43l-15.59,62.15a2.14,2.14,0,0,1-2.26,1.8H428q-1.8,0-1.35-1.8l17.17-68.46a27.86,27.86,0,0,1,4.15-9,35.1,35.1,0,0,1,7-7.56,34.62,34.62,0,0,1,8.86-5.14,26.18,26.18,0,0,1,9.66-1.89Z"/><path class="cls-1" d="M509.13,197.88a2.14,2.14,0,0,1,2.25-1.8h18.37c1.2,0,1.65.61,1.35,1.8l-22.64,90.26a2.13,2.13,0,0,1-2.25,1.8H487.84c-1.21,0-1.66-.6-1.36-1.8Zm11.11-37.11h18.37c1.2,0,1.65.61,1.35,1.81L535.35,181a2.13,2.13,0,0,1-2.25,1.8H514.72q-1.8,0-1.35-1.8L518,162.58A2.14,2.14,0,0,1,520.24,160.77Z"/><path class="cls-1" d="M610.73,194.28l7.95-31.7a2.14,2.14,0,0,1,2.26-1.81h18.37c1.2,0,1.65.61,1.35,1.81l-31.5,125.56a2.13,2.13,0,0,1-2.25,1.8h-56q-8.65,0-13.67-4.41A25,25,0,0,1,530,274.27a45.25,45.25,0,0,1-2.11-15,69.84,69.84,0,0,1,2-15.67,108.81,108.81,0,0,1,6.78-19.45,61.43,61.43,0,0,1,9.62-15.05,40.48,40.48,0,0,1,12.51-9.63,35,35,0,0,1,15.63-3.43h34.05A2.13,2.13,0,0,0,610.73,194.28Zm-6.42,25.58q.45-1.8-1.35-1.8H583.33a52,52,0,0,0-10.43,1,23.73,23.73,0,0,0-8.87,3.78,25.26,25.26,0,0,0-7.1,7.84,47.15,47.15,0,0,0-5.06,13q-1.85,7.4-1.23,12.07a12.89,12.89,0,0,0,3.2,7.39,13.86,13.86,0,0,0,6.88,3.78A41.94,41.94,0,0,0,570.81,268h19.64a2.13,2.13,0,0,0,2.25-1.8Z"/><path class="cls-1" d="M628.78,306.15h48.64a6.08,6.08,0,0,0,3.92-1.26,11.69,11.69,0,0,0,2.64-3,15.39,15.39,0,0,0,1.67-3.78c.41-1.39.75-2.62,1-3.7l1.13-4.5H661a31.07,31.07,0,0,1-13.23-2.88,26.52,26.52,0,0,1-10.38-8.56,32.91,32.91,0,0,1-5.62-13.87q-1.46-8.19,1.21-18.83l2.9-11.53A56.6,56.6,0,0,1,641.56,220a49.11,49.11,0,0,1,9.71-12.16,46,46,0,0,1,31.43-11.8h41.61q4.5,0,6.69,2.07t1,6.76l-24.23,96.56a26.34,26.34,0,0,1-3.94,8.2,43.4,43.4,0,0,1-7.17,8.1,41.3,41.3,0,0,1-9.1,6.13,22,22,0,0,1-9.8,2.43h-54q-1.8,0-1.35-1.8L626.53,308A2.13,2.13,0,0,1,628.78,306.15Zm27.48-51.7A12.64,12.64,0,0,0,659,262a14.48,14.48,0,0,0,7.61,4.5A51.07,51.07,0,0,0,680,268h11.53a2.13,2.13,0,0,0,2.25-1.8l11.62-46.3c.3-1.2-.16-1.8-1.35-1.8h-23.6q-8.65,0-13.92,5.59T658.79,239l-1.17,4.68A37.58,37.58,0,0,0,656.26,254.45Z"/><path class="cls-1" d="M751.6,255.35a8,8,0,0,0,.2,5,9.82,9.82,0,0,0,2.88,4,14.43,14.43,0,0,0,5.17,2.7,23.32,23.32,0,0,0,7,1h42.87q1.8,0,1.35,1.8l-4.61,18.38a2.13,2.13,0,0,1-2.25,1.8H773.73q-15.13,0-24.68-2.52t-14.38-8a22.32,22.32,0,0,1-5.33-14q-.48-8.46,2.5-20.36,3.61-14.4,10.4-23.87a58.42,58.42,0,0,1,15.3-15,56.73,56.73,0,0,1,18-7.84A79.91,79.91,0,0,1,794,196.08q11.16,0,18.62,2.62a25.76,25.76,0,0,1,11.48,7.38,21,21,0,0,1,4.74,11.62A44.59,44.59,0,0,1,827.46,233l-4.7,18.74a2.13,2.13,0,0,1-2.25,1.8H753.85A2.13,2.13,0,0,0,751.6,255.35Zm53.84-22.88a2.13,2.13,0,0,0,2.25-1.8q1.71-6.84-3.57-10.9t-16.64-4.05a37.44,37.44,0,0,0-8.29,1.08,57.41,57.41,0,0,0-9.21,3,31.64,31.64,0,0,0-7.93,4.69,11.8,11.8,0,0,0-4.26,6.21q-.45,1.8,1.35,1.8Z"/><path class="cls-1" d="M367.34,127.36a2.14,2.14,0,0,1-2.26,1.81H342.56c-1.2,0-1.65-.6-1.34-1.81L366.84,25.22q.45-1.8-1.35-1.8H336.12q-1.8,0-1.35-1.8l5-19.82A2.13,2.13,0,0,1,342,0h88.45q1.8,0,1.35,1.8l-5,19.82a2.13,2.13,0,0,1-2.25,1.8H395.21a2.13,2.13,0,0,0-2.25,1.8Z"/><path class="cls-1" d="M471.85,35.31q1.8,0,1.35,1.8l-4.61,18.38a2.13,2.13,0,0,1-2.25,1.8H449.05a5.92,5.92,0,0,0-3.11.9,17.08,17.08,0,0,0-2.77,2.07A13.08,13.08,0,0,0,441,62.78a8.45,8.45,0,0,0-1.15,2.43l-15.59,62.15a2.13,2.13,0,0,1-2.25,1.81H401.83c-1.2,0-1.65-.6-1.35-1.81l17.17-68.45a27.8,27.8,0,0,1,4.16-9,35.13,35.13,0,0,1,7-7.57,34.08,34.08,0,0,1,8.85-5.13,26.18,26.18,0,0,1,9.66-1.89Z"/><path class="cls-1" d="M488.61,35.31h50.8q6.84,0,10.87,3a16.82,16.82,0,0,1,5.83,7.66,27.68,27.68,0,0,1,1.7,10.45,50.8,50.8,0,0,1-1.54,11.53l-14.91,59.44a2.14,2.14,0,0,1-2.26,1.81H476.23c-3.6,0-6.27-1.11-8-3.34a17.29,17.29,0,0,1-3.35-7.83,34.48,34.48,0,0,1-.35-9,46.63,46.63,0,0,1,1-6.85A56,56,0,0,1,469,92.6,48.08,48.08,0,0,1,474.85,83a35,35,0,0,1,8-7.48,17.51,17.51,0,0,1,10-3.06h30.08a14.09,14.09,0,0,0,8-2.25,9.15,9.15,0,0,0,4.13-5.32,7.4,7.4,0,0,0-.54-5,4.12,4.12,0,0,0-4-2.52H483.09q-1.8,0-1.35-1.8l4.61-18.38A2.13,2.13,0,0,1,488.61,35.31Zm33.8,72.78a2.14,2.14,0,0,0,2.26-1.8l2.71-10.81q.45-1.8-1.35-1.8H494a6.58,6.58,0,0,0-4.66,2.07,9.67,9.67,0,0,0-2.78,4.59,7.48,7.48,0,0,0,.45,5.41q1.21,2.34,4.46,2.34Z"/><path class="cls-1" d="M642.9,33.51l8-31.71A2.13,2.13,0,0,1,653.11,0h18.38c1.19,0,1.65.6,1.35,1.8l-31.5,125.56a2.14,2.14,0,0,1-2.26,1.81h-56q-8.65,0-13.67-4.42a25,25,0,0,1-7.26-11.26A44.9,44.9,0,0,1,560,98.54a68.64,68.64,0,0,1,2-15.67,108.14,108.14,0,0,1,6.77-19.46,61.1,61.1,0,0,1,9.63-15A40.48,40.48,0,0,1,591,38.73a35.09,35.09,0,0,1,15.63-3.42h34A2.13,2.13,0,0,0,642.9,33.51Zm-6.41,25.58q.45-1.8-1.35-1.8H615.5a52.1,52.1,0,0,0-10.43,1,23.87,23.87,0,0,0-8.87,3.78,25.27,25.27,0,0,0-7.1,7.84,47,47,0,0,0-5.06,13q-1.85,7.38-1.22,12.07a12.82,12.82,0,0,0,3.19,7.38,13.78,13.78,0,0,0,6.89,3.79A41.85,41.85,0,0,0,603,107.19h19.64a2.13,2.13,0,0,0,2.25-1.8Z"/><path class="cls-1" d="M682.17,94.58a8,8,0,0,0,.2,5,9.82,9.82,0,0,0,2.88,4,14.37,14.37,0,0,0,5.17,2.71,23.32,23.32,0,0,0,7,1h42.88q1.8,0,1.35,1.8L737,127.36a2.14,2.14,0,0,1-2.26,1.81H704.3q-15.13,0-24.68-2.53t-14.38-8a22.42,22.42,0,0,1-5.33-14q-.48-8.48,2.5-20.36Q666,69.9,672.81,60.44a58.11,58.11,0,0,1,15.3-15,56.51,56.51,0,0,1,18-7.84,79.91,79.91,0,0,1,18.49-2.25q11.16,0,18.62,2.61a25.78,25.78,0,0,1,11.48,7.39,21,21,0,0,1,4.74,11.62A44.12,44.12,0,0,1,758,72.24L753.33,91a2.13,2.13,0,0,1-2.25,1.81H684.42A2.13,2.13,0,0,0,682.17,94.58ZM736,71.7a2.13,2.13,0,0,0,2.25-1.8Q740,63,734.69,59t-16.64-4A37.36,37.36,0,0,0,709.77,56a57.2,57.2,0,0,0-9.22,3,31.62,31.62,0,0,0-7.93,4.68,11.86,11.86,0,0,0-4.26,6.22q-.45,1.8,1.35,1.8Z"/></g></g></svg>