<svg xmlns="http://www.w3.org/2000/svg" viewBox="0 0 785.87 328.06"><defs><style>.cls-1,.cls-2{fill:#fff;}.cls-2{font-size:146px;font-family:Prototype;}.cls-3{letter-spacing:-0.06em;}.cls-4{fill:#000;}</style></defs><title>Ativo 1</title><g id="Camada_2" data-name="Camada 2"><g id="Camada_2-2" data-name="Camada 2"><path class="cls-1" d="M141.06,137v17L74.5,306.65a152.47,152.47,0,0,1,30.88-276L101.06,6l2-6h17l-2,6,3.57,20.33,9.29,52.89Z"/><path class="cls-1" d="M180.06,105l-11,37h-9s-1.35-7.57-2.93-16.25c-1.46-8-3.11-17-4.07-21.75a23.59,23.59,0,0,1-.63-6.81c.31-2.63,1.63-2.19,1.63-2.19l21,3,.73.13A5.15,5.15,0,0,1,180.06,105Z"/><path class="cls-1" d="M220.06,22l-17.42,9.68-.58.32s-7,28-10,37a20.22,20.22,0,0,1-10,12s-6.75-.8-14-1.89h0c-.54-.07-1.08-.16-1.62-.24-3.73-.58-7.47-1.22-10.37-1.87-9-2-9-9-9-9L139.4,23.76q6.45-.54,13-.55a152.23,152.23,0,0,1,39.26,5.11L203.06,22Z"/><path class="cls-1" d="M199.44,320.67a150,150,0,0,1-16,4.23,153.22,153.22,0,0,1-82.64-5.82l50.49-133.45L156.06,173l8.75,2.62h0l3.37,9.57v0Z"/><path class="cls-1" d="M304.86,175.63a152.35,152.35,0,0,1-73.14,130.21L187.06,161l1-24L215.88,37A152.42,152.42,0,0,1,304.86,175.63Z"/><text class="cls-2" transform="matrix(0.97, 0, -0.24, 0.97, 351.49, 138.25)"><tspan class="cls-3">T</tspan><tspan x="71.98" y="0">rade</tspan><tspan class="cls-4" x="360.91" y="0"> </tspan><tspan x="0" y="145.2">Bridge</tspan></text></g></g></svg>